<svg xmlns="http://www.w3.org/2000/svg" xmlns:xlink="http://www.w3.org/1999/xlink" width="500" zoomAndPan="magnify" viewBox="0 0 375 374.999991" height="500" preserveAspectRatio="xMidYMid meet" version="1.0"><defs><clipPath id="id1"><path d="M 14.320312 98.722656 L 360.820312 98.722656 L 360.820312 276.472656 L 14.320312 276.472656 Z M 14.320312 98.722656 " clip-rule="nonzero"/></clipPath></defs><rect x="-37.5" width="450" fill="rgb(100%, 100%, 100%)" y="-37.499999" height="449.999989" fill-opacity="1"/><rect x="-37.5" width="450" fill="rgb(100%, 100%, 100%)" y="-37.499999" height="449.999989" fill-opacity="1"/><rect x="-37.5" width="450" fill="rgb(100%, 100%, 100%)" y="-37.499999" height="449.999989" fill-opacity="1"/><rect x="-37.5" width="450" fill="rgb(100%, 100%, 100%)" y="-37.499999" height="449.999989" fill-opacity="1"/><g clip-path="url(#id1)"><path fill="rgb(32.939148%, 32.939148%, 32.939148%)" d="M 195.144531 159.269531 C 195.144531 158.644531 195.542969 158.109375 196.128906 157.90625 C 205.410156 154.621094 212.925781 146.921875 215.5 136.660156 C 218.757812 123.6875 213.140625 110.566406 202.5 103.707031 C 199.777344 101.941406 196.730469 100.59375 193.417969 99.757812 C 181.753906 96.832031 169.976562 101.070312 162.734375 109.691406 C 162.621094 109.828125 162.585938 110.015625 162.632812 110.179688 L 162.671875 110.277344 C 164.109375 114.714844 169.539062 116.304688 173.164062 113.378906 C 177.984375 109.480469 184.515625 107.804688 190.984375 109.429688 C 194.367188 110.277344 197.351562 111.941406 199.765625 114.140625 C 205.132812 119.039062 207.707031 126.675781 205.820312 134.226562 C 203.808594 142.234375 197.328125 147.933594 189.710938 149.347656 C 188.898438 149.496094 188.0625 149.597656 187.226562 149.648438 C 185.203125 149.773438 183.117188 149.597656 181.042969 149.070312 C 178.109375 148.335938 175.484375 146.996094 173.273438 145.222656 C 172.75 144.796875 172.238281 144.359375 171.765625 143.886719 C 168.304688 140.484375 162.921875 140.011719 158.8125 142.574219 L 158.726562 142.625 C 161.324219 147.933594 165.457031 152.457031 170.691406 155.519531 C 173.113281 156.933594 175.761719 158.03125 178.609375 158.757812 C 178.695312 158.78125 178.78125 158.796875 178.871094 158.820312 C 179.519531 158.96875 179.992188 159.546875 179.992188 160.21875 L 179.992188 168.03125 C 179.992188 168.78125 179.570312 169.46875 178.90625 169.804688 L 34.925781 242.804688 C 22.285156 249.214844 14.320312 262.1875 14.320312 276.359375 L 187.5625 191.601562 L 360.804688 270.199219 C 360.804688 256.550781 352.964844 244.117188 340.636719 238.253906 L 196.28125 169.554688 C 195.578125 169.21875 195.128906 168.519531 195.128906 167.742188 L 195.128906 159.269531 Z M 195.144531 159.269531 " fill-opacity="1" fill-rule="nonzero"/></g></svg>